<?xml version="1.0" encoding="UTF-8"?>
<svg version="1.1" xmlns="http://www.w3.org/2000/svg" width="1080" height="1080">
<path d="M0 0 C1.12921875 -0.00193359 1.12921875 -0.00193359 2.28125 -0.00390625 C5.34760652 0.77887842 6.49920571 2.13608687 8.5 4.5625 C9.04589844 7.12792969 9.04589844 7.12792969 9.109375 9.984375 C9.14160156 11.00917969 9.17382812 12.03398437 9.20703125 13.08984375 C9.22121094 14.15332031 9.23539063 15.21679688 9.25 16.3125 C9.29447266 17.93091797 9.29447266 17.93091797 9.33984375 19.58203125 C9.41046936 22.24226244 9.46320196 24.90162102 9.5 27.5625 C9.88744385 27.14887207 10.2748877 26.73524414 10.67407227 26.30908203 C12.45663716 24.42184742 14.25911203 22.5548379 16.0625 20.6875 C16.67158203 20.03652344 17.28066406 19.38554687 17.90820312 18.71484375 C21.90865613 14.60855865 24.76872337 12.41873892 30.5 11.5625 C33.7745581 12.67461407 35.73799005 13.63483571 37.9375 16.3125 C38.79792534 19.75420137 38.35307168 22.11708209 37.5 25.5625 C35.71227346 27.89714115 33.54010745 29.66399391 31.27734375 31.52734375 C29.99852544 32.65363037 28.72358293 33.78432989 27.45214844 34.91894531 C26.79275269 35.50341431 26.13335693 36.0878833 25.45397949 36.69006348 C13.55828868 46.83900492 13.55828868 46.83900492 7.64453125 60.73828125 C7.45528232 66.46524494 8.09707128 72.00936897 9.5 77.5625 C10.1798999 76.83546875 10.8597998 76.1084375 11.56030273 75.359375 C14.10322359 72.65282568 16.67642168 69.97677589 19.25952148 67.30859375 C20.37046677 66.15255116 21.47318193 64.98853787 22.56713867 63.81640625 C31.63673342 54.11577558 31.63673342 54.11577558 36.20336914 52.75976562 C39.64397449 52.70149143 42.09838634 53.32740908 45.0625 55.0625 C47.12359709 58.64701667 47.52706274 61.61627232 46.5 65.5625 C43.39394301 70.54914375 38.6808765 74.31763668 34.2240448 78.05386353 C15.94347006 92.47833519 15.94347006 92.47833519 7.53515625 113.09375 C7.14015627 121.30022701 8.04761628 129.49320502 9.5 137.5625 C9.9081897 137.13876602 10.31637939 136.71503204 10.73693848 136.27845764 C14.9988049 131.86141576 19.28536253 127.46946077 23.58691406 123.09106445 C25.18774943 121.45508327 26.78223903 119.812867 28.37011719 118.16430664 C30.65730615 115.79195639 32.96658228 113.4431655 35.28125 111.09765625 C36.33487732 109.98983543 36.33487732 109.98983543 37.40979004 108.8596344 C40.66954984 105.59734043 43.16780915 103.20458438 47.81835938 102.43920898 C52.60013853 102.59934151 54.00494835 104.44734527 57.5 107.5625 C58.510625 107.5625 59.52125 107.5625 60.5625 107.5625 C63.5 107.5625 63.5 107.5625 66.1394043 109.34838867 C69.61519786 114.08091761 69.22814977 118.25369756 69.20703125 123.98828125 C69.22215256 125.09100876 69.23727386 126.19373627 69.25285339 127.32987976 C69.29577333 130.84512716 69.30457305 134.35951653 69.3125 137.875 C69.33564079 140.26109059 69.36100524 142.64716072 69.38867188 145.03320312 C69.45156675 150.87631018 69.48646682 156.71908136 69.5 162.5625 C79.08126042 156.66551708 89.06640882 149.23756911 93.5 138.5625 C96.88985852 123.85888195 95.54054995 107.57626783 94.5070343 92.63534546 C94.45025009 91.63129669 94.39346588 90.62724792 94.33496094 89.59277344 C94.27145447 88.7147406 94.207948 87.83670776 94.14251709 86.93206787 C94.63197631 83.68769783 95.98330513 82.58231603 98.5 80.5625 C102.12563666 79.40538192 103.76262402 79.2273291 107.25 80.8125 C109.5 82.5625 109.5 82.5625 111.5 85.5625 C111.7402117 88.17043391 111.87263695 90.68137145 111.9140625 93.29296875 C111.93342865 94.04338943 111.9527948 94.79381012 111.9727478 95.56697083 C112.03247459 97.96119867 112.07890065 100.35547477 112.125 102.75 C112.1631862 104.3743698 112.20223831 105.99871948 112.2421875 107.62304688 C112.33817025 111.60270105 112.42222636 115.58245001 112.5 119.5625 C119.45653433 115.72126797 125.18783601 110.89433936 128.5 103.5625 C130.35804698 94.58804453 129.85820634 85.15020461 129.60522461 76.04150391 C129.57068428 74.66422623 129.57068428 74.66422623 129.53544617 73.25912476 C129.48169493 71.50857809 129.40515111 69.7585414 129.30281067 68.01016235 C129.07069452 62.15357276 129.07069452 62.15357276 131.31933594 59.05761719 C134.15317799 57.11466503 136.064446 56.63261335 139.5 56.5625 C142.37872577 57.9364373 144.24989437 59.31239437 146.5 61.5625 C146.81884766 63.90087891 146.81884766 63.90087891 146.9140625 66.7890625 C146.95273437 67.8203125 146.99140625 68.8515625 147.03125 69.9140625 C147.07765625 71.53441406 147.07765625 71.53441406 147.125 73.1875 C147.16367187 74.27546875 147.20234375 75.3634375 147.2421875 76.484375 C147.33666247 79.17691165 147.42222431 81.86943757 147.5 84.5625 C148.12044189 83.93420288 148.12044189 83.93420288 148.75341797 83.29321289 C150.62466831 81.40120591 152.49977585 79.51306815 154.375 77.625 C155.02597656 76.96564453 155.67695312 76.30628906 156.34765625 75.62695312 C157.28544922 74.68432617 157.28544922 74.68432617 158.2421875 73.72265625 C158.8182373 73.14136963 159.39428711 72.56008301 159.98779297 71.96118164 C162.90946624 69.25884613 165.60582789 69.21461656 169.5234375 69.29296875 C171.5 69.5625 171.5 69.5625 174 71.0625 C175.68868995 73.87698325 176.25109161 76.12838044 176.07421875 79.421875 C174.9129605 83.75091938 171.63239271 86.51793138 168.5 89.5625 C167.75878906 90.3153125 167.01757812 91.068125 166.25390625 91.84375 C164.35294267 93.76843327 162.43205281 95.6691743 160.5 97.5625 C161.14026123 97.5718457 161.78052246 97.58119141 162.44018555 97.59082031 C165.35672375 97.64468847 168.27168625 97.72830199 171.1875 97.8125 C172.69860352 97.83376953 172.69860352 97.83376953 174.24023438 97.85546875 C178.72831719 98.0035903 181.71400593 98.10611635 185.6484375 100.390625 C188.21595859 103.40231641 188.43016111 105.65152239 188.5 109.5625 C187.39791992 112.96058026 186.57902124 113.50981917 183.5 115.5625 C180.49652408 115.61197821 177.57732223 115.55206393 174.58203125 115.4140625 C152.23514477 113.64487154 152.23514477 113.64487154 132.83081055 122.35107422 C130.05280529 125.5809258 127.56169526 128.828736 125.5 132.5625 C127.00566528 132.57651855 127.00566528 132.57651855 128.54174805 132.59082031 C132.2788471 132.63080231 136.01512998 132.69658256 139.75170898 132.77001953 C141.36651089 132.79818186 142.98144943 132.81942 144.59643555 132.83349609 C146.92307237 132.85499258 149.24807477 132.90167211 151.57421875 132.953125 C152.29212082 132.95435364 153.01002289 132.95558228 153.74967957 132.95684814 C158.57628392 133.09674247 161.16585767 134.05155007 164.5 137.5625 C165.6659741 141.57053597 165.93240501 143.61532711 164.1875 147.4375 C162.5 149.5625 162.5 149.5625 160.5 150.5625 C158.89785885 150.56003128 157.29560681 150.48995161 155.69677734 150.38696289 C123.87998862 147.08192467 123.87998862 147.08192467 95.78713989 158.56651306 C90.64642398 163.65927612 86.28784434 169.40811163 82.5 175.5625 C83.11530075 175.56392502 83.7306015 175.56535004 84.36454773 175.56681824 C90.77269993 175.58651516 97.17989958 175.6407888 103.58764648 175.71508789 C105.97852747 175.73827514 108.3695107 175.75266528 110.76049805 175.75805664 C114.1990537 175.76734038 117.63599944 175.80832168 121.07421875 175.85546875 C122.14210129 175.8515361 123.20998383 175.84760345 124.31022644 175.84355164 C131.71590499 175.98892616 131.71590499 175.98892616 135.67895508 178.88793945 C137.90080038 182.15115372 138.0148997 184.68169759 138.5 188.5625 C139.180625 189.408125 139.86125 190.25375 140.5625 191.125 C142.5 193.5625 142.5 193.5625 143.1875 196.375 C141.09670973 206.06866397 127.9593222 215.21152398 121.0625 222.0625 C119.74520941 223.37476585 118.42815014 224.68726395 117.11132812 226 C113.9102139 229.19018506 110.70598135 232.37720651 107.5 235.5625 C119.11148029 238.1640764 133.40569155 240.59250135 144.05200195 233.97662354 C156.23603548 224.78280962 166.37456042 212.71408388 176.12158203 201.04945374 C178.50637082 198.47688818 179.74400219 198.5428224 183.375 198.25 C186.28484862 198.31348761 187.40783838 198.50950707 190 200 C191.73509092 202.96411366 192.36100857 205.41852551 192.30273438 208.85913086 C190.42912741 215.16887839 184.19231576 219.74563651 179.5 224.125 C178.34170478 225.23811004 177.18543037 226.35332698 176.03125 227.47070312 C173.21028971 230.19289572 170.36325684 232.88485988 167.5 235.5625 C175.54377745 237.50455935 183.58439414 238.35226841 191.5 235.5625 C198.47858341 231.06520619 204.02991472 224.50258648 209.49926758 218.3425293 C210.0483075 217.72632217 210.59734741 217.11011505 211.1630249 216.47523499 C212.1945565 215.30086604 213.20932463 214.11147292 214.20343018 212.90525818 C217.59556053 208.9503898 220.36240718 207.40396674 225.5 206.5625 C228.7745581 207.67461407 230.73799005 208.63483571 232.9375 211.3125 C233.81781328 214.83375312 233.42503471 217.02370444 232.5 220.5625 C230.26760288 223.51977733 227.64732014 225.98285623 224.9375 228.5 C224.22658203 229.18384766 223.51566406 229.86769531 222.78320312 230.57226562 C221.03496033 232.25010938 219.27430649 233.9123154 217.5 235.5625 C218.51368652 235.57651855 218.51368652 235.57651855 219.54785156 235.59082031 C222.6159711 235.64457301 225.68257387 235.72820992 228.75 235.8125 C229.81347656 235.82667969 230.87695312 235.84085938 231.97265625 235.85546875 C232.99746094 235.88769531 234.02226563 235.91992188 235.078125 235.953125 C236.02075195 235.97407227 236.96337891 235.99501953 237.93457031 236.01660156 C241.21321292 236.71426476 242.41339465 237.99135567 244.5 240.5625 C245.57348469 243.55292163 245.61847103 245.11015605 244.8125 248.1875 C243.31149949 250.90359616 242.12943217 251.94071157 239.5 253.5625 C237.02636719 253.99487305 237.02636719 253.99487305 234.296875 254.07421875 C233.3171875 254.10966797 232.3375 254.14511719 231.328125 254.18164062 C230.31234375 254.20419922 229.2965625 254.22675781 228.25 254.25 C227.21875 254.28416016 226.1875 254.31832031 225.125 254.35351562 C222.58344188 254.43588093 220.04222374 254.50506834 217.5 254.5625 C221.32655734 259.41550822 221.32655734 259.41550822 226.67871094 262.16943359 C229.09638113 262.33340481 231.45308706 262.32628072 233.875 262.25 C247.65333449 262.38749054 260.24558856 264.99187808 272.5 271.5625 C273.675625 272.13097656 273.675625 272.13097656 274.875 272.7109375 C278.62780277 274.70796469 280.86276705 276.29571445 282.1875 280.4375 C282.92032347 284.93669528 281.75834404 287.66880338 279.5 291.5625 C275.16810656 294.45042896 271.58612492 294.37212805 266.5 293.5625 C263.40534813 292.24217074 260.50749599 290.68700356 257.54296875 289.09765625 C243.94042763 282.23527029 226.57810443 282.77755996 212.2421875 287.09375 C207.18871855 288.94212142 202.53965234 291.58664831 197.84863281 294.19726562 C190.96015345 297.99238034 184.08818508 300.48186861 176.5 302.5625 C175.19289063 302.92988281 175.19289063 302.92988281 173.859375 303.3046875 C150.32611489 308.70697677 128.03625455 302.05826542 107.18481445 291.37988281 C91.51426109 283.419387 74.1120653 282.01464701 57.2421875 287.09375 C52.18946652 288.94184784 47.54007009 291.58497061 42.85083008 294.19726562 C22.73820019 305.2869132 -1.48725157 308.10682006 -23.61328125 301.82421875 C-31.72852379 299.2893362 -39.32133815 295.71602419 -46.84375 291.79638672 C-61.79535815 284.06237231 -79.0582906 281.55951542 -95.48046875 286.3828125 C-100.69895776 288.42160122 -105.63916484 290.98328556 -110.60546875 293.56640625 C-132.00933571 304.66335121 -156.09324078 308.41641292 -179.5 301.5625 C-186.83573572 299.07067866 -193.75688019 295.99420133 -200.63427734 292.4362793 C-216.35864822 284.30859318 -233.39211524 281.48820482 -250.73828125 286.49609375 C-253.84426989 287.6954359 -256.69140584 289.17723659 -259.625 290.75 C-264.96580137 293.54989587 -269.50782774 295.0221317 -275.5 293.5625 C-278.91421647 291.19345184 -280.14346607 289.58753506 -281.5 285.6875 C-281.5 281.64167369 -281.04202431 278.7168887 -278.5 275.5625 C-275.03711807 273.09909164 -271.36078841 271.31926086 -267.5 269.5625 C-266.69046875 269.1809375 -265.8809375 268.799375 -265.046875 268.40625 C-256.67270238 264.74601561 -247.76315703 262.58589098 -238.625 262.40234375 C-237.36707642 262.37370239 -237.36707642 262.37370239 -236.08374023 262.34448242 C-234.44271597 262.32366571 -232.80090667 262.33394134 -231.16040039 262.38012695 C-226.26683127 262.33621759 -223.94995384 261.52227383 -220.43359375 258.015625 C-219.43369868 256.88366832 -218.44765862 255.73853538 -217.5 254.5625 C-218.14026123 254.55839111 -218.78052246 254.55428223 -219.44018555 254.55004883 C-222.35687905 254.51703962 -225.27150384 254.44638974 -228.1875 254.375 C-229.69860352 254.36629883 -229.69860352 254.36629883 -231.24023438 254.35742188 C-238.70960695 254.13555932 -238.70960695 254.13555932 -242.66796875 251.265625 C-245.46343904 247.14096522 -245.27766852 245.46181166 -244.5 240.5625 C-242.28000449 237.8975587 -240.46706747 236.72224564 -237.02734375 236.15405273 C-234.0760324 235.94437307 -231.14587381 235.85414058 -228.1875 235.8125 C-227.16076172 235.78285156 -226.13402344 235.75320313 -225.07617188 235.72265625 C-222.55070325 235.65217806 -220.02614585 235.5993734 -217.5 235.5625 C-217.91886475 235.14887207 -218.33772949 234.73524414 -218.76928711 234.30908203 C-220.66129409 232.43783169 -222.54943185 230.56272415 -224.4375 228.6875 C-225.4265332 227.71103516 -225.4265332 227.71103516 -226.43554688 226.71484375 C-227.06396484 226.08964844 -227.69238281 225.46445312 -228.33984375 224.8203125 C-228.92113037 224.2442627 -229.50241699 223.66821289 -230.10131836 223.07470703 C-232.80531462 220.15123822 -232.84134444 217.45342048 -232.77734375 213.53515625 C-232.5 211.5625 -232.5 211.5625 -230.875 209.125 C-227.9340868 207.19018868 -226.02349544 206.63440807 -222.5 206.5625 C-218.06630423 208.67262522 -215.27614705 211.85829162 -212.16796875 215.54296875 C-200.53206361 229.88313816 -200.53206361 229.88313816 -184.44921875 237.27734375 C-178.69646576 237.46053642 -173.10570581 236.85424295 -167.5 235.5625 C-168.19150146 234.87623535 -168.88300293 234.1899707 -169.59545898 233.48291016 C-172.15674174 230.93970731 -174.71473009 228.39321291 -177.27172852 225.84570312 C-178.3795536 224.74291139 -179.48827393 223.64101824 -180.59790039 222.54003906 C-182.1913208 220.95872779 -183.78150948 219.37422876 -185.37109375 217.7890625 C-185.86902939 217.29628815 -186.36696503 216.80351379 -186.87998962 216.29580688 C-189.99620679 213.18010095 -191.37157205 211.69694693 -191.875 207.25 C-191.5 203.5625 -191.5 203.5625 -189.4375 200.625 C-186.5 198.5625 -186.5 198.5625 -183.1875 197.8125 C-175.95862295 199.28278008 -171.58053213 205.37954472 -167.00740051 210.83831787 C-152.58474847 229.12022874 -152.58474847 229.12022874 -131.96875 237.52734375 C-123.76227299 237.92234373 -115.56929498 237.01488372 -107.5 235.5625 C-107.90898529 235.16461777 -108.31797058 234.76673553 -108.73934937 234.35679626 C-113.00452469 230.20248307 -117.25180102 226.03047922 -121.48925781 221.84790039 C-123.07167476 220.29058318 -124.65855619 218.73778863 -126.25 217.18969727 C-128.54062738 214.95991468 -130.81455277 212.71420466 -133.0859375 210.46484375 C-133.79744965 209.77913803 -134.50896179 209.09343231 -135.24203491 208.38694763 C-139.34419585 204.28713207 -141.60040909 201.35378333 -142.5 195.5625 C-141.78574381 192.70547523 -141.19864347 191.14936052 -138.9375 189.25 C-136.89255924 186.84941736 -137.09151561 184.58384952 -137.00390625 181.5 C-136.2774788 178.7069146 -134.92352974 178.05447963 -132.5 176.5625 C-130.12078857 176.16377258 -130.12078857 176.16377258 -127.45605469 176.13012695 C-126.45531921 176.11033279 -125.45458374 176.09053864 -124.42352295 176.07014465 C-123.35047913 176.06375473 -122.2774353 176.05736481 -121.171875 176.05078125 C-120.06773254 176.03283005 -118.96359009 176.01487885 -117.82598877 175.99638367 C-114.30069798 175.94221773 -110.77554309 175.908364 -107.25 175.875 C-104.85935607 175.84183257 -102.46873008 175.80734345 -100.078125 175.77148438 C-94.21887185 175.6864876 -88.35960125 175.61816421 -82.5 175.5625 C-88.39698292 165.98123958 -95.82493089 155.99609118 -106.5 151.5625 C-121.20361805 148.17264148 -137.48623217 149.52195005 -152.42715454 150.5554657 C-153.43120331 150.61224991 -154.43525208 150.66903412 -155.46972656 150.72753906 C-156.3477594 150.79104553 -157.22579224 150.854552 -158.13043213 150.91998291 C-161.40222874 150.426386 -162.51070136 149.14718408 -164.5 146.5625 C-165.27403846 141.14423077 -165.27403846 141.14423077 -164.5 138.5625 C-161.73484229 135.06278534 -160.2609629 133.69853553 -155.8112793 132.90307617 C-154.399425 132.86231173 -152.98664022 132.84773154 -151.57421875 132.85546875 C-150.82662796 132.84034744 -150.07903717 132.82522614 -149.30879211 132.80964661 C-146.93471913 132.76685919 -144.56191969 132.7579412 -142.1875 132.75 C-140.57223198 132.72684842 -138.95699409 132.70148169 -137.34179688 132.67382812 C-133.39441914 132.61106543 -129.44783246 132.57866016 -125.5 132.5625 C-129.34123203 125.60596567 -134.16816064 119.87466399 -141.5 116.5625 C-150.47445547 114.70445302 -159.91229539 115.20429366 -169.02099609 115.45727539 C-170.39827377 115.49181572 -170.39827377 115.49181572 -171.80337524 115.52705383 C-173.55392191 115.58080507 -175.3039586 115.65734889 -177.05233765 115.75968933 C-182.91737491 115.99214029 -182.91737491 115.99214029 -186.02807617 113.69824219 C-187.69719448 111.27637339 -188.06750253 109.98398031 -188.0625 107.0625 C-188.09537109 105.93328125 -188.09537109 105.93328125 -188.12890625 104.78125 C-187.5 102.5625 -187.5 102.5625 -185.671875 100.328125 C-180.95970031 97.7050918 -176.49901247 97.88726217 -171.1875 97.8125 C-170.16076172 97.78285156 -169.13402344 97.75320313 -168.07617188 97.72265625 C-165.55070325 97.65217806 -163.02614585 97.5993734 -160.5 97.5625 C-160.91886475 97.14887207 -161.33772949 96.73524414 -161.76928711 96.30908203 C-163.66129409 94.43783169 -165.54943185 92.56272415 -167.4375 90.6875 C-168.09685547 90.03652344 -168.75621094 89.38554687 -169.43554688 88.71484375 C-170.06396484 88.08964844 -170.69238281 87.46445312 -171.33984375 86.8203125 C-171.92113037 86.2442627 -172.50241699 85.66821289 -173.10131836 85.07470703 C-175.27005882 82.72993859 -175.50652592 81.50485435 -175.875 78.25 C-175.5 74.5625 -175.5 74.5625 -173.4375 71.625 C-170.5 69.5625 -170.5 69.5625 -167.1875 68.8125 C-161.87049504 69.89392474 -159.23905941 72.7810316 -155.5 76.5625 C-154.36884766 77.67431641 -154.36884766 77.67431641 -153.21484375 78.80859375 C-151.29257418 80.71052184 -149.39275357 82.63132362 -147.5 84.5625 C-147.48598145 83.60210815 -147.48598145 83.60210815 -147.47167969 82.62231445 C-147.41781153 79.70577625 -147.33419801 76.79081375 -147.25 73.875 C-147.23582031 72.86759766 -147.22164062 71.86019531 -147.20703125 70.82226562 C-146.95999886 63.33718428 -146.95999886 63.33718428 -144.6328125 59.41796875 C-141.83726737 56.98594689 -140.19920371 56.5625 -136.5 56.5625 C-130.88823529 58.78602941 -130.88823529 58.78602941 -129.5 61.5625 C-129.53739551 64.50941676 -129.62899295 67.43897868 -129.74609375 70.3828125 C-131.45665047 92.78565979 -131.45665047 92.78565979 -122.70922852 112.23388672 C-119.48001542 115.01090587 -116.23278061 117.50134774 -112.5 119.5625 C-112.48541748 118.58901611 -112.47083496 117.61553223 -112.45581055 116.61254883 C-112.39766704 112.98734524 -112.32043623 109.3627524 -112.23754883 105.73803711 C-112.20437468 104.17173199 -112.17631942 102.60530949 -112.15356445 101.03881836 C-112.11987884 98.78188237 -112.06755951 96.52601474 -112.01171875 94.26953125 C-112.00532883 93.57350296 -111.9989389 92.87747467 -111.99235535 92.16035461 C-111.86201478 87.81236435 -111.11936367 85.04810992 -108.5 81.5625 C-105.95770394 79.63386161 -104.71654982 79.55347709 -101.5 79.6875 C-98.00115879 80.70799535 -96.77033801 81.74801066 -94.5 84.5625 C-94.14251709 86.93206787 -94.14251709 86.93206787 -94.33496094 89.59277344 C-94.42013725 91.09884659 -94.42013725 91.09884659 -94.5070343 92.63534546 C-94.58205673 93.71990021 -94.65707916 94.80445496 -94.734375 95.921875 C-97.33210475 124.34014814 -97.33210475 124.34014814 -86.50546265 149.26904297 C-81.4086375 154.41080769 -75.6575384 158.77271691 -69.5 162.5625 C-69.49857498 161.94719925 -69.49714996 161.3318985 -69.49568176 160.69795227 C-69.47598484 154.28980007 -69.4217112 147.88260042 -69.34741211 141.47485352 C-69.32422486 139.08397253 -69.30983472 136.6929893 -69.30444336 134.30200195 C-69.29515962 130.8634463 -69.25417832 127.42650056 -69.20703125 123.98828125 C-69.2109639 122.92039871 -69.21489655 121.85251617 -69.21894836 120.75227356 C-69.07360766 113.34831772 -69.07360766 113.34831772 -66.18237305 109.38745117 C-62.92372202 107.17042956 -60.3753927 106.99309919 -56.5 106.5625 C-56.025625 106.0675 -55.55125 105.5725 -55.0625 105.0625 C-52.87115339 102.95880726 -50.61357952 102.50031039 -47.63598633 102.2668457 C-39.08615456 103.45027767 -28.97111955 117.9889222 -23 124 C-21.68773415 125.31729059 -20.37523605 126.63434986 -19.0625 127.95117188 C-15.87231494 131.1522861 -12.68529349 134.35651865 -9.5 137.5625 C-6.92877914 125.67335057 -4.37802275 110.89726965 -11.08587646 99.98187256 C-20.23383512 87.76984937 -32.3275379 77.64335273 -44.01304626 67.93418884 C-46.19634765 65.92013146 -46.48214835 64.72316489 -46.8125 61.75 C-46.41034486 57.64801753 -45.68026445 56.19979247 -42.5 53.5625 C-38.66968089 52.68986682 -37.16263484 52.44515326 -33.5 53.5625 C-28.8261465 57.10126933 -24.9283719 61.2864377 -20.9375 65.5625 C-19.82438996 66.72079522 -18.70917302 67.87706963 -17.59179688 69.03125 C-14.86960428 71.85221029 -12.17764012 74.69924316 -9.5 77.5625 C-7.55647104 69.51263559 -6.71509232 61.48508219 -9.5 53.5625 C-15.63107056 43.92161368 -25.31548838 36.26203063 -33.90795898 28.88720703 C-37.30615986 25.83948463 -37.44023611 25.30357218 -37.8125 20.6875 C-37.76787499 17.61395256 -37.62465875 16.74256264 -35.8125 14.125 C-33.20467359 12.36295513 -31.64257113 11.71579615 -28.5 11.5625 C-23.09597414 12.90392486 -19.91450255 16.81080321 -16.1875 20.6875 C-15.54232422 21.34621094 -14.89714844 22.00492188 -14.23242188 22.68359375 C-12.64792522 24.30330144 -11.07087901 25.92960005 -9.5 27.5625 C-9.48598145 26.60210815 -9.48598145 26.60210815 -9.47167969 25.62231445 C-9.41781153 22.70577625 -9.33419801 19.79081375 -9.25 16.875 C-9.23582031 15.86759766 -9.22164062 14.86019531 -9.20703125 13.82226562 C-9.05997869 9.36657303 -8.92865763 6.33256636 -6.734375 2.390625 C-4.23841141 0.34847297 -3.18598169 -0.09274262 0 0 Z M-51.5 121.5625 C-52.16278304 131.09764026 -52.61746464 140.63355803 -52.875 150.1875 C-52.8938324 150.88130264 -52.91266479 151.57510529 -52.93206787 152.28993225 C-53.97803464 173.58031385 -53.97803464 173.58031385 -45.14096069 192.12380981 C-40.5597195 196.75506153 -35.25242281 200.52217208 -29.5 203.5625 C-28.84 202.2425 -28.18 200.9225 -27.5 199.5625 C-21.23 199.5625 -14.96 199.5625 -8.5 199.5625 C-5.7783373 187.76862831 -3.56288294 175.07230337 -8.5 163.5625 C-14.14918121 154.74707313 -21.85040602 147.45078029 -29.4375 140.3125 C-29.93769402 139.84108833 -30.43788803 139.36967667 -30.95323944 138.8839798 C-40.47519587 128.14798911 -40.47519587 128.14798911 -51.5 121.5625 Z M29.4375 140.3125 C28.69131786 141.01454182 28.69131786 141.01454182 27.93006134 141.7307663 C11.91789069 156.63702535 11.91789069 156.63702535 5.56156921 176.90979004 C5.52259639 184.64953688 6.76427797 192.04103789 8.5 199.5625 C14.77 199.5625 21.04 199.5625 27.5 199.5625 C28.16 200.8825 28.82 202.2025 29.5 203.5625 C38.87253508 198.60883422 47.79075298 191.81583549 51.5 181.5625 C53.4739813 171.26634515 53.15835477 160.62654744 52.875 150.1875 C52.8561676 149.48886337 52.83733521 148.79022675 52.81793213 148.07041931 C52.56219273 139.22358631 52.1137378 130.39205002 51.5 121.5625 C45.16365268 121.5625 34.2629664 135.76470237 29.4375 140.3125 Z M-123.5 193.5625 C-122.23978027 195.03021851 -122.23978027 195.03021851 -120.95410156 196.52758789 C-119.22705423 198.53971096 -117.50572663 200.55568603 -115.79968262 202.58566284 C-97.42026748 226.53753763 -97.42026748 226.53753763 -71.5625 238.92578125 C-63.46372251 239.38604941 -55.39423433 238.33121968 -47.5 236.5625 C-45.9382623 233.98952218 -44.40093258 231.40658538 -42.875 228.8125 C-42.42898438 228.08289063 -41.98296875 227.35328125 -41.5234375 226.6015625 C-41.1109375 225.89257812 -40.6984375 225.18359375 -40.2734375 224.453125 C-39.88591309 223.80375977 -39.49838867 223.15439453 -39.09912109 222.48535156 C-38.28452078 220.55533368 -38.28452078 220.55533368 -39.19433594 218.65820312 C-39.62520508 217.96662109 -40.05607422 217.27503906 -40.5 216.5625 C-41.18618408 215.2926123 -41.18618408 215.2926123 -41.88623047 213.99707031 C-47.16587405 205.28454141 -53.66771813 197.13693288 -63.5 193.5625 C-82.74662524 189.80596059 -104.10451891 192.1485816 -123.5 193.5625 Z M41.859375 213.09375 C40.71205139 214.89946512 39.5804148 216.71597288 38.5 218.5625 C40.04610102 222.55205687 41.88605975 226.12300212 44.0625 229.8125 C44.99255859 231.39804687 44.99255859 231.39804687 45.94140625 233.015625 C47.74044357 236.15333681 47.74044357 236.15333681 50.97631836 237.3425293 C61.1024738 239.73349857 71.77210039 240.98126413 81.5 236.5625 C90.18019904 230.81291357 97.43507511 223.15462874 104.5625 215.625 C105.03654644 215.1248727 105.51059288 214.62474541 105.99900436 214.10946274 C116.82831828 204.58277074 116.82831828 204.58277074 123.5 193.5625 C114.03035442 192.80735304 104.55719313 192.29191193 95.0625 192 C94.37126541 191.97859955 93.68003082 191.9571991 92.96784973 191.93515015 C70.50701905 191.31965002 55.41749966 193.86122492 41.859375 213.09375 Z M-27.02026367 231.76147461 C-27.89698059 233.8282097 -28.73280893 235.91316205 -29.51147461 238.01879883 C-30.5 240.5625 -30.5 240.5625 -32.5 243.5625 C-32.13026851 247.07010252 -30.35403935 249.85378757 -28.62890625 252.87890625 C-27.76749023 254.39581055 -27.76749023 254.39581055 -26.88867188 255.94335938 C-26.28603516 256.99330078 -25.68339844 258.04324219 -25.0625 259.125 C-24.1643457 260.70571289 -24.1643457 260.70571289 -23.24804688 262.31835938 C-20.00500999 268.02062154 -20.00500999 268.02062154 -16.5 273.5625 C-11.21271658 274.54508149 -5.80724455 274.59848232 -0.4375 274.6875 C0.70872833 274.70653381 0.70872833 274.70653381 1.87811279 274.72595215 C10.65396506 274.92023625 10.65396506 274.92023625 18.82470703 272.27050781 C22.09687734 268.95584178 23.50245342 264.97994546 24.8125 260.58105469 C25.91423843 257.34626301 27.74836828 254.78798985 29.625 251.9375 C31.99643448 248.359178 31.99643448 248.359178 32.26513672 244.25732422 C31.37203895 241.11181905 30.03856872 238.67457341 28.375 235.859375 C27.75109375 234.7971875 27.1271875 233.735 26.484375 232.640625 C25.82953125 231.54234375 25.1746875 230.4440625 24.5 229.3125 C23.84515625 228.19875 23.1903125 227.085 22.515625 225.9375 C19.87501938 220.98117979 19.87501938 220.98117979 16.5 216.5625 C-2.94011565 213.27183426 -17.77876899 211.98841079 -27.02026367 231.76147461 Z M-201.75390625 262.7421875 C-203.67546505 265.29306703 -203.67546505 265.29306703 -203.5 267.5625 C-201.2536764 268.57154375 -199.00356063 269.5698602 -196.75 270.5625 C-195.79867187 270.99175781 -195.79867187 270.99175781 -194.828125 271.4296875 C-191.41582896 272.92256702 -189.29218083 273.5625 -185.5 273.5625 C-183.18891964 271.82145181 -183.18891964 271.82145181 -180.953125 269.44140625 C-180.10878906 268.58869141 -179.26445312 267.73597656 -178.39453125 266.85742188 C-177.52183594 265.95572266 -176.64914062 265.05402344 -175.75 264.125 C-174.41775391 262.77825195 -174.41775391 262.77825195 -173.05859375 261.40429688 C-168.89487017 257.92722462 -168.89487017 257.92722462 -166.5 253.5625 C-186.54744733 251.46160829 -186.54744733 251.46160829 -201.75390625 262.7421875 Z M-168.5 280.5625 C-168.5 281.2225 -168.5 281.8825 -168.5 282.5625 C-157.61266062 284.64909982 -143.84521091 285.08852977 -133.5 280.5625 C-126.9208108 275.68162645 -121.26356868 269.4776289 -115.5 263.6875 C-114.62988281 262.82125 -113.75976562 261.955 -112.86328125 261.0625 C-112.04214844 260.24007813 -111.22101563 259.41765625 -110.375 258.5703125 C-109.62992188 257.82410645 -108.88484375 257.07790039 -108.1171875 256.30908203 C-106.38676601 254.83692315 -106.38676601 254.83692315 -106.5 253.5625 C-135.7465205 249.06204902 -151.27899618 256.33460051 -168.5 280.5625 Z M-90.5 262.5625 C-88.03451595 263.79524202 -86.51686252 263.63216547 -83.765625 263.5546875 C-68.90414771 263.26035143 -56.53326645 264.20572257 -42.609375 269.890625 C-40.47491285 270.84061228 -40.47491285 270.84061228 -38.5 269.5625 C-41.47 264.2825 -44.44 259.0025 -47.5 253.5625 C-52.18243697 253.35444877 -56.84858244 253.17596141 -61.53198242 253.06811523 C-63.12010264 253.02314563 -64.70785633 252.96194097 -66.29467773 252.88354492 C-77.04176804 252.36630528 -83.90723163 253.05390562 -90.5 262.5625 Z M47.5 253.5625 C45.96935061 256.18220793 44.45030252 258.80751643 42.9375 261.4375 C42.49986328 262.18386719 42.06222656 262.93023437 41.61132812 263.69921875 C41.20205078 264.41464844 40.79277344 265.13007813 40.37109375 265.8671875 C39.79766235 266.8569458 39.79766235 266.8569458 39.21264648 267.86669922 C38.97747314 268.42631348 38.7422998 268.98592773 38.5 269.5625 C38.83 270.2225 39.16 270.8825 39.5 271.5625 C40.52738281 271.15257812 41.55476563 270.74265625 42.61328125 270.3203125 C44.01282005 269.77552558 45.41257136 269.23128438 46.8125 268.6875 C47.48345703 268.41808594 48.15441406 268.14867187 48.84570312 267.87109375 C58.55916308 264.13163968 68.35470555 263.25563607 78.6875 262.9375 C80.25854492 262.87949219 80.25854492 262.87949219 81.86132812 262.8203125 C84.40739113 262.72730563 86.95346963 262.64146716 89.5 262.5625 C88.54270084 261.43661986 87.58412105 260.3118285 86.625 259.1875 C86.09132813 258.56101562 85.55765625 257.93453125 85.0078125 257.2890625 C82.31653316 254.0227938 82.31653316 254.0227938 78.15185547 253.33544922 C76.72359367 253.33576625 75.29530788 253.34708639 73.8671875 253.3671875 C73.11535187 253.3700174 72.36351624 253.37284729 71.58889771 253.37576294 C69.18410422 253.38697126 66.77968119 253.41207648 64.375 253.4375 C62.74609912 253.44752898 61.11719242 253.45665497 59.48828125 253.46484375 C55.49204444 253.48691265 51.49608506 253.52144649 47.5 253.5625 Z M106.5 253.5625 C121.87052903 273.25628526 121.87052903 273.25628526 143.56640625 283.3359375 C152.32672759 283.84050417 160.81528698 284.20591492 169.5 282.5625 C164.7140871 271.7788875 153.10918157 258.94931004 142.5 253.5625 C131.13817786 250.0945221 118.07256213 251.98367258 106.5 253.5625 Z M166.5 253.5625 C170.71548963 258.56436537 175.05404296 263.3834128 179.625 268.0625 C180.23214844 268.70703125 180.83929687 269.3515625 181.46484375 270.015625 C182.05652344 270.61890625 182.64820313 271.2221875 183.2578125 271.84375 C183.7852002 272.39095703 184.31258789 272.93816406 184.85595703 273.50195312 C186.45663647 274.78274483 186.45663647 274.78274483 188.48681641 274.32055664 C191.61653903 273.14207147 194.68767039 271.84132527 197.75 270.5 C198.3996875 270.21833984 199.049375 269.93667969 199.71875 269.64648438 C201.31369086 268.9545615 202.90700934 268.258901 204.5 267.5625 C203.654375 266.551875 202.80875 265.54125 201.9375 264.5 C201.22400391 263.64728516 201.22400391 263.64728516 200.49609375 262.77734375 C199.83738281 262.04644531 199.17867187 261.31554687 198.5 260.5625 C197.84559937 259.67510132 197.84559937 259.67510132 197.17797852 258.76977539 C194.57063694 255.59990058 192.70300795 253.79510241 188.59204102 253.00024414 C185.22324088 252.8742532 181.92891039 252.95084233 178.5625 253.125 C176.82129883 253.17237305 176.82129883 253.17237305 175.04492188 253.22070312 C172.19397968 253.30282903 169.3483274 253.41761582 166.5 253.5625 Z " fill="#FFFFFF" transform="translate(539.5,215.4375)"/>
<path d="M0 0 C15.92594593 8.23913913 32.61774943 9.86064691 49.87866211 4.70263672 C54.95018435 2.86669496 59.60454683 0.21792218 64.30493164 -2.40087891 C84.73236085 -13.66281245 109.50377199 -16.36854036 131.94506836 -9.95751953 C139.52702996 -7.52331081 146.51976186 -4.36921778 153.57519531 -0.71240234 C170.34626243 7.92205061 186.89351256 9.93608194 205.11303711 4.52685547 C209.81994792 2.80911845 214.24535831 0.67997713 218.65600586 -1.69189453 C222.43566316 -3.04528744 224.79021742 -2.73370142 228.65600586 -1.76611328 C231.61642698 0.81638174 233.25081339 2.41407492 234.10131836 6.23388672 C234.29607763 9.66164982 233.88519541 11.88053004 232.01928711 14.75732422 C222.51603204 24.71610722 203.96230672 29.03745862 190.74975586 29.43701172 C170.43704415 29.72193048 154.42825872 25.31415914 136.34082031 16.05126953 C121.79650813 8.66289379 104.5411503 6.39436877 88.67553711 11.05419922 C83.4570481 13.09298794 78.51684102 15.65467228 73.55053711 18.23779297 C52.34855685 29.23006873 27.83732809 33.37546177 4.65600586 26.23388672 C-3.50346638 23.5843164 -11.04617315 19.95002167 -18.65917969 16.05126953 C-33.20349187 8.66289379 -50.4588497 6.39436877 -66.32446289 11.05419922 C-71.5429519 13.09298794 -76.48315898 15.65467228 -81.44946289 18.23779297 C-103.17591508 29.5019839 -127.74168675 33.27943741 -151.39331055 25.88867188 C-170.76841887 19.38503727 -170.76841887 19.38503727 -174.34399414 12.23388672 C-174.79886995 7.68512858 -175.0608887 4.55996034 -172.28149414 0.79638672 C-168.70822718 -2.3207185 -167.0423554 -2.59693361 -162.34399414 -2.76611328 C-159.59968551 -1.7971985 -157.23099512 -0.80714517 -154.65649414 0.48388672 C-138.47692839 7.98694217 -122.23095754 9.80477702 -104.99633789 4.63623047 C-99.71572042 2.60869927 -94.89131657 -0.04666831 -89.96508789 -2.80517578 C-60.76218555 -18.9712068 -28.51537636 -14.85622644 0 0 Z " fill="#FFFFFF" transform="translate(510.343994140625,545.76611328125)"/>
<path d="M0 0 C16.77528992 8.12489946 33.53285892 11.18659938 51.75390625 5.76953125 C58.7309684 3.23782045 65.38051791 -0.21201433 71.98461914 -3.57714844 C91.62758859 -13.48043343 114.78556153 -15.00459867 135.87988281 -8.66015625 C142.55769395 -6.36994292 148.82328218 -3.14773077 155.078125 0.09375 C156.48922707 0.81445414 157.90198082 1.53193396 159.31640625 2.24609375 C159.94071533 2.56312256 160.56502441 2.88015137 161.20825195 3.20678711 C168.38881792 6.61284484 175.92702963 7.86269566 183.72265625 9.0546875 C187.73399962 10.29684971 188.96291017 11.51094167 191.078125 15.09375 C191.79476258 18.17107609 191.65126619 20.99204473 191.078125 24.09375 C189.28418832 26.96404869 188.09549224 28.58506638 185.078125 30.09375 C169.50290732 32.17271779 154.6620324 24.89154892 141.19775391 18.140625 C124.41108366 9.84976552 108.0214247 7.26664839 89.8359375 12.69140625 C83.58254423 14.89277192 77.77325461 18.08181171 71.91357422 21.14941406 C52.22463523 31.27934437 28.5053219 33.69775735 7.1171875 27.5 C-0.92789035 24.85915872 -8.46666129 20.94771092 -15.95092773 17.03222656 C-31.5810261 8.97791246 -48.354001 7.67693992 -65.1640625 12.69140625 C-71.41745577 14.89277192 -77.22674539 18.08181171 -83.08642578 21.14941406 C-94.85614153 27.20491559 -108.52227913 31.791644 -121.921875 30.09375 C-124.97536043 28.84742942 -126.28812501 27.93874999 -128.234375 25.34375 C-129.25003381 22.0197757 -129.33983986 19.55688738 -128.921875 16.09375 C-126.90738114 12.53481085 -125.68154464 10.67923423 -121.78515625 9.3828125 C-119.1728479 8.86960538 -116.55498564 8.48560374 -113.921875 8.09375 C-104.02376024 5.96806791 -95.19789024 2.81420472 -86.23095703 -1.84082031 C-57.16333435 -16.8812644 -28.63930472 -13.93263473 0 0 Z " fill="#FFFFFF" transform="translate(507.921875,603.90625)"/>
<path d="M0 0 C2.50848746 0.83616249 3.62571785 1.43951871 5.09440613 3.63885498 C6.32556016 6.84882946 6.2442812 9.59126117 6.23950195 13.02832031 C6.24151611 13.72806473 6.24353027 14.42780914 6.24560547 15.14875793 C6.24914468 16.66506811 6.24839163 18.18139306 6.24382973 19.6977005 C6.23822294 22.10314345 6.24741831 24.50810659 6.2610321 26.91351318 C6.29809614 33.75144553 6.31672859 40.58921604 6.30541992 47.42724609 C6.29954592 51.61425098 6.31794159 55.80058214 6.35130882 59.98744965 C6.35922943 61.57732001 6.35803135 63.16726446 6.34728432 64.75711823 C6.10444903 75.7951093 6.10444903 75.7951093 10.61125183 85.63250732 C13.73192028 88.70541237 16.88153956 89.84975458 21.203125 90.15625 C26.43860131 89.94255709 29.65016827 88.33248011 33.58984375 84.9609375 C37.0257773 80.18299113 37.24764062 74.46662851 37.23950195 68.76708984 C37.24151611 68.08159561 37.24353027 67.39610138 37.24560547 66.68983459 C37.24912725 65.21449561 37.24841343 63.73914146 37.24382973 62.26380539 C37.23819744 59.92615274 37.24745667 57.58898902 37.2610321 55.25137329 C37.29801021 48.6099409 37.31667539 41.96868113 37.30541992 35.32714844 C37.2995647 31.25339925 37.31783972 27.18034623 37.35130882 23.10673904 C37.3592502 21.55904715 37.35800286 20.01127913 37.34728432 18.46360397 C37.33293309 16.29967269 37.34924471 14.13793179 37.37231445 11.97412109 C37.37294388 10.74503021 37.3735733 9.51593933 37.3742218 8.24960327 C38.17747961 4.07836624 39.69503016 2.58928357 43 0 C47.0837786 -0.65632156 49.12283388 -0.52631465 52.68051147 1.60835266 C55.7542087 4.77767198 55.62032542 6.46066587 55.61181641 10.82885742 C55.61748123 11.5074884 55.62314606 12.18611938 55.62898254 12.88531494 C55.64247099 15.12593051 55.62154242 17.36492399 55.6015625 19.60546875 C55.60706561 21.17003991 55.61519287 22.73460384 55.62582397 24.29914856 C55.6487211 28.42058726 55.64449141 32.54149604 55.63201904 36.66296387 C55.6137297 43.24108438 55.62386316 49.8188895 55.65787888 56.39693642 C55.66393978 58.68415635 55.65077254 60.97069211 55.63589478 63.25785828 C55.60052709 76.10280232 55.60052709 76.10280232 61.625 87 C65.83175499 89.49289185 69.13138966 90.28838458 74 90 C79.22734793 88.45750389 82.02944312 86.5700875 85 82 C86.16777564 78.49667308 86.13175525 75.73537624 86.1418457 72.03759766 C86.14705734 70.98097176 86.14705734 70.98097176 86.15237427 69.90299988 C86.15972221 68.37411919 86.16507272 66.8452279 86.16866493 65.31633377 C86.17583749 62.89507673 86.19150954 60.4740215 86.21000671 58.05282593 C86.26244159 51.16903435 86.31045629 44.28535423 86.32592773 37.40136719 C86.33601388 33.18962695 86.36535226 28.97839607 86.40724754 24.76685715 C86.41955192 23.16336292 86.42467982 21.55979675 86.42244911 19.95625687 C86.42009377 17.71068276 86.44227662 15.46656809 86.4699707 13.22119141 C86.47877007 11.30616318 86.47877007 11.30616318 86.48774719 9.35244751 C87.08617979 5.43599487 88.23921867 3.78625592 91 1 C93.7798816 -0.3899408 95.9186326 -0.18488204 99 0 C101.50228377 0.83409459 102.62338249 1.43815965 104.09220886 3.62936401 C105.33800509 6.88267773 105.26225206 9.69769655 105.2746582 13.18017578 C105.27976913 13.89621475 105.28488007 14.61225372 105.29014587 15.34999084 C105.30403374 17.71518341 105.30308469 20.08008401 105.30078125 22.4453125 C105.30467076 24.09715889 105.30900596 25.74900428 105.31376648 27.40084839 C105.32122853 30.86589799 105.3209391 34.33084574 105.31567383 37.79589844 C105.30990203 42.21395555 105.32675443 46.63159031 105.3500185 51.04957771 C105.36483354 54.46418658 105.36561665 57.87869582 105.36250877 61.29333115 C105.36301885 62.92065131 105.36819702 64.54797751 105.37832069 66.17526627 C105.45016696 79.34784829 104.67674005 90.19173144 95 100 C87.30028473 106.5426152 78.52788827 109.60899954 68.4375 109.21484375 C60.94302823 108.55427332 56.02009117 106.79282816 49.9453125 102.2421875 C47.96326924 100.73090552 47.96326924 100.73090552 45 101 C42.94513607 102.25357865 42.94513607 102.25357865 40.8125 103.875 C32.72284123 109.3983741 24.00628876 110.24812629 14.390625 108.53515625 C4.60911861 105.96827026 -2.84390213 100.70750111 -8 92 C-12.62319272 82.83016333 -12.5891859 73.69609266 -12.53125 63.6953125 C-12.5339502 62.04149142 -12.537837 60.3876719 -12.54284668 58.7338562 C-12.54870707 55.28953748 -12.54028505 51.8456369 -12.52148438 48.40136719 C-12.49858822 43.9929371 -12.51190627 39.58547559 -12.53577423 35.17708015 C-12.55023456 31.77121688 -12.54562709 28.3655832 -12.53526306 24.95971298 C-12.53260199 23.33384968 -12.53584371 21.70796529 -12.54518127 20.08212662 C-12.55536336 17.81346584 -12.53983019 15.54637597 -12.51757812 13.27783203 C-12.51439575 11.9897464 -12.51121338 10.70166077 -12.50793457 9.37454224 C-11.91580731 5.44065279 -10.77477408 3.79464245 -8 1 C-5.2201184 -0.3899408 -3.0813674 -0.18488204 0 0 Z " fill="#FFFFFF" transform="translate(646,688)"/>
<path d="M0 0 C10.97608696 9.44663222 18.12813347 21.3104707 20.046875 35.7734375 C21.08538083 53.38809401 17.21507572 67.60169255 5.69140625 81.09375 C-5.11791124 92.04676595 -18.63890148 97.7901623 -34.015625 98.0234375 C-50.13765572 97.8581775 -63.51515617 92.07801894 -74.953125 80.7734375 C-86.49466999 67.3880285 -89.89794328 53.1475959 -88.953125 35.7734375 C-86.80493645 20.75432264 -79.21402621 7.9733867 -67.25 -1.328125 C-46.69763464 -15.12757032 -19.94594273 -15.03860761 0 0 Z M-63.203125 20.0859375 C-70.05024388 28.50024436 -71.72233779 38.18963929 -70.953125 48.7734375 C-69.26824733 58.35439442 -64.42397765 66.44779946 -56.80078125 72.49609375 C-48.80581101 78.02327191 -39.69388525 80.95187557 -29.953125 79.7734375 C-18.34705763 77.36571918 -9.98353129 72.51469804 -3.16796875 62.75390625 C2.03828804 54.26653585 3.3029409 44.91598173 1.5859375 35.15234375 C-1.00579956 25.37997048 -6.67519861 17.55746955 -14.953125 11.7734375 C-31.96279992 2.55402556 -50.12334427 5.99500165 -63.203125 20.0859375 Z " fill="#FFFFFF" transform="translate(594.953125,699.2265625)"/>
<path d="M0 0 C9.47813663 7.82809665 15.04319169 15.72141084 16.24536133 28.22799683 C16.44824553 32.59837875 16.43240675 36.96587639 16.40625 41.33984375 C16.4089512 42.94739516 16.41283881 44.55494497 16.41784668 46.16249084 C16.42370046 49.5066812 16.4153056 52.85044034 16.39648438 56.19458008 C16.37356654 60.47407571 16.38692382 64.75257473 16.41077423 69.03203487 C16.42523419 72.34096282 16.42062765 75.64965446 16.41026306 78.95858955 C16.407603 80.53700442 16.41084011 82.11544102 16.42018127 83.69383049 C16.43036531 85.8953434 16.41482895 88.09523829 16.39257812 90.29663086 C16.38939575 91.5461705 16.38621338 92.79571014 16.38293457 94.08311462 C15.78463675 97.96063734 14.60386805 99.61033575 11.875 102.375 C9.02175563 103.80162219 7.04045451 103.68533868 3.875 103.375 C1.17509338 101.57506226 -0.6668865 100.291227 -2.125 97.375 C-2.22541395 95.17088752 -2.26061806 92.96371403 -2.2668457 90.75732422 C-2.27032013 90.077379 -2.27379456 89.39743378 -2.27737427 88.69688416 C-2.28473375 87.21764826 -2.29007811 85.73840131 -2.29366493 84.25915146 C-2.30083297 81.91275865 -2.31650433 79.56657467 -2.33500671 77.22024536 C-2.38744308 70.54790203 -2.43539777 63.87566969 -2.45092773 57.203125 C-2.4610487 53.12219543 -2.49048193 49.04178659 -2.53224754 44.96106339 C-2.54450996 43.41028928 -2.54968753 41.85944143 -2.54744911 40.30862045 C-2.46218596 28.73340645 -2.46218596 28.73340645 -7.125 18.375 C-12.22545989 14.31545029 -16.38944547 13.01065539 -22.77734375 13.09375 C-27.70424574 13.6839945 -30.95692355 16.20692355 -34.4375 19.6875 C-37.7466498 24.95762746 -38.37393774 30.31694579 -38.38037109 36.44018555 C-38.38580177 37.44157562 -38.38580177 37.44157562 -38.39134216 38.4631958 C-38.3981871 39.8992394 -38.40075089 41.33530875 -38.39939499 42.77136803 C-38.39842296 45.04573831 -38.41144811 47.3196448 -38.42837524 49.59394836 C-38.47446405 56.05519141 -38.49927365 62.51638114 -38.50585938 68.9777832 C-38.51087146 72.94124303 -38.53509365 76.90420948 -38.57118607 80.86750221 C-38.58098025 82.374144 -38.58331804 83.88085364 -38.57801437 85.38751793 C-38.5709493 87.49155015 -38.5882072 89.59410551 -38.61083984 91.69799805 C-38.6151149 93.49167061 -38.6151149 93.49167061 -38.61947632 95.32157898 C-39.22850722 99.00019551 -40.17655531 100.15792608 -43.125 102.375 C-46.99665104 103.43090483 -49.1879369 103.74982524 -52.9375 102.25 C-56.24133276 99.41814335 -57.01939825 96.636092 -57.37896729 92.34213257 C-57.38055847 91.21393097 -57.38214966 90.08572937 -57.38378906 88.92333984 C-57.39009338 87.63785248 -57.39639771 86.35236511 -57.40289307 85.02792358 C-57.39931076 83.6305935 -57.39520817 82.23326466 -57.390625 80.8359375 C-57.3919741 79.38969864 -57.39391667 77.94346022 -57.39642334 76.4972229 C-57.39936874 73.46604087 -57.3950996 70.43497687 -57.38574219 67.40380859 C-57.37440923 63.54756832 -57.38087141 59.69160839 -57.39288712 55.83537865 C-57.40017413 52.84622148 -57.39778566 49.85712881 -57.39263153 46.86796951 C-57.39131066 45.4480244 -57.39288702 44.02807316 -57.39759064 42.60813522 C-57.43342326 28.73861714 -56.76088459 15.41149604 -47.0625 4.625 C-34.52419197 -7.02955064 -14.35320537 -10.03330861 0 0 Z " fill="#FFFFFF" transform="translate(471.125,693.625)"/>
<path d="M0 0 C2.14890429 -0.00439748 4.2957909 -0.04084206 6.44433594 -0.07861328 C7.8167248 -0.08447811 9.18912334 -0.08844974 10.56152344 -0.09033203 C12.42091553 -0.10265869 12.42091553 -0.10265869 14.31787109 -0.11523438 C18.08788268 0.45632764 19.2498055 1.37025589 21.52246094 4.37060547 C22.25565496 7.43276872 22.10150312 10.28238048 21.52246094 13.37060547 C19.6462548 15.87221365 18.2835479 16.99006199 15.52246094 18.37060547 C13.63392102 18.47696856 11.74200915 18.52603151 9.85058594 18.54638672 C8.71105469 18.57023438 7.57152344 18.59408203 6.39746094 18.61865234 C3.99659539 18.66134015 1.59550047 18.69274215 -0.80566406 18.71240234 C-9.47312385 18.84203683 -9.47312385 18.84203683 -16.47753906 23.37060547 C-18.36416261 26.13218487 -18.81725112 28.48906769 -18.91503906 31.80810547 C-18.955 32.54931641 -18.99496094 33.29052734 -19.03613281 34.05419922 C-18.17977938 37.60537116 -16.45802702 39.43665989 -13.47753906 41.37060547 C-8.23586777 43.56642143 -2.78218428 45.13403161 2.64550781 46.80029297 C11.89679656 49.78629971 20.48731225 53.3704445 25.58496094 62.05810547 C29.78745474 70.47804857 29.86547417 80.29273164 26.95996094 89.18310547 C23.58332145 97.32258381 17.64460482 103.78853176 9.52246094 107.37060547 C4.10191807 108.92224041 -0.86856193 109.68822546 -6.52050781 109.70654297 C-7.25199539 109.71319977 -7.98348297 109.71985657 -8.73713684 109.72671509 C-10.26898715 109.73675893 -11.80088048 109.7415347 -13.33276367 109.74121094 C-15.6701585 109.74561511 -18.00570765 109.78210195 -20.34277344 109.81982422 C-21.83951184 109.82568817 -23.33625911 109.82966038 -24.83300781 109.83154297 C-25.52581345 109.845914 -26.21861908 109.86028503 -26.93241882 109.87509155 C-31.71576376 109.83012154 -34.11810814 108.74852723 -37.47753906 105.37060547 C-39.046895 102.23189359 -38.82955009 99.83204725 -38.47753906 96.37060547 C-35.81785909 92.88524607 -34.34162602 91.5215782 -29.97583008 90.75878906 C-28.65768311 90.76217285 -27.33953613 90.76555664 -25.98144531 90.76904297 C-25.27028061 90.76103668 -24.55911591 90.7530304 -23.82640076 90.74478149 C-21.56369406 90.72179316 -19.30279245 90.73113619 -17.04003906 90.74560547 C-14.78119434 90.74946633 -12.52314566 90.74590088 -10.26438904 90.7250061 C-8.2125486 90.70745078 -6.16053937 90.71486135 -4.10864258 90.72363281 C0.97747805 90.22914411 4.23650652 88.65655989 7.83496094 85.05810547 C9.79934727 81.92963834 10.44850926 80.06818938 10.52246094 76.37060547 C9.63927157 72.95560657 8.95373627 70.34078417 5.92041016 68.28466797 C0.60041501 65.73303309 -4.80985126 63.82083422 -10.41503906 61.99560547 C-20.14082951 58.6981112 -28.60773806 55.17530698 -34.47753906 46.37060547 C-38.50142505 38.06217692 -38.71713271 29.41549215 -35.91503906 20.68310547 C-32.74077898 12.84804802 -26.95490313 6.39807923 -19.47753906 2.37060547 C-13.04746016 -0.1432332 -6.79167882 -0.00155987 0 0 Z " fill="#FFFFFF" transform="translate(367.4775390625,687.62939453125)"/>
<path d="M0 0 C6.34348528 5.81005584 9.11982788 11.77863641 9.5 20.3125 C9.29567239 27.71937584 7.48587471 33.67979063 2.02734375 38.87890625 C-4.32151629 43.80372292 -10.26475502 46.41559746 -18.42578125 45.82421875 C-26.31990639 44.60879357 -32.39159953 41.21033904 -37.4375 35 C-41.18551924 27.80380305 -42.25761251 20.72803199 -40.5 12.72265625 C-38.10354594 5.6286076 -33.55566881 0.59919072 -27 -3 C-17.97189696 -6.21339261 -7.93542694 -5.76014543 0 0 Z M-32.40625 8.640625 C-35.64610643 13.59297698 -36.72828599 19.41013011 -35.55859375 25.17578125 C-33.5053045 31.4060475 -29.40838632 35.39440912 -24 39 C-18.34165621 40.8861146 -12.26345061 40.91147069 -6.75 38.5 C-1.9492476 35.77340635 1.97169363 31.25941958 3.64453125 25.95703125 C4.7505983 19.86758516 3.87080166 15.44462384 1 10 C-2.16459429 5.55246207 -4.7704678 2.71148326 -10 1 C-19.3291361 -0.31940639 -26.16203993 1.35571325 -32.40625 8.640625 Z " fill="#FFFFFF" transform="translate(533,819)"/>
<path d="M0 0 C4.04755503 3.83783716 5.88124469 7.18898158 6.25 12.8125 C6.20555189 16.84986968 5.06667058 19.50255748 3 23 C2.608125 23.78375 2.21625 24.5675 1.8125 25.375 C1.544375 25.91125 1.27625 26.4475 1 27 C1.639375 27.763125 2.27875 28.52625 2.9375 29.3125 C6.03645114 33.35052724 6.11576096 36.23423091 6.0625 41.1875 C6.05347656 42.27417969 6.04445313 43.36085938 6.03515625 44.48046875 C6.02355469 45.31191406 6.01195312 46.14335938 6 47 C4.515 47.495 4.515 47.495 3 48 C2.34 47.67 1.68 47.34 1 47 C0.42777493 43.74376689 0.10385844 40.48665517 -0.2421875 37.19921875 C-1.13670727 33.42286982 -1.79480795 32.17604891 -5 30 C-7.86170093 29.39088293 -10.36729485 28.99536135 -13.25 28.75 C-17.08625 28.37875 -17.08625 28.37875 -21 28 C-21 34.27 -21 40.54 -21 47 C-22.485 47.495 -22.485 47.495 -24 48 C-26.64271382 45.35728618 -26.25983316 43.40060787 -26.30354309 39.80302429 C-26.30263168 38.95408096 -26.30172028 38.10513763 -26.30078125 37.23046875 C-26.30506638 36.35731522 -26.3093515 35.48416168 -26.31376648 34.58454895 C-26.31951618 32.73435331 -26.32000535 30.88413505 -26.31567383 29.03393555 C-26.31252406 26.20907674 -26.335929 23.38527531 -26.36132812 20.56054688 C-26.36360214 18.76302215 -26.36430414 16.96549462 -26.36328125 15.16796875 C-26.372491 14.32509811 -26.38170074 13.48222748 -26.39118958 12.61381531 C-26.34635977 6.89926555 -25.23744821 3.72384999 -21.5625 -0.75 C-15.69957247 -5.44034203 -5.85259474 -3.37649696 0 0 Z M-20 6 C-21.18681726 9.56045177 -21.09689832 12.43808337 -21.0625 16.1875 C-21.05347656 17.45980469 -21.04445313 18.73210938 -21.03515625 20.04296875 C-21.02355469 21.01878906 -21.01195312 21.99460937 -21 23 C-18.60293877 23.10854617 -16.21084162 23.18753157 -13.8125 23.25 C-13.13896484 23.28351562 -12.46542969 23.31703125 -11.77148438 23.3515625 C-8.17824953 23.4216744 -6.17779363 23.11046208 -3.1015625 21.19921875 C-0.30709671 18.2748986 0.37284641 15.97197275 1 12 C0.32164805 8.75898512 -0.8173376 7.21801641 -2.9375 4.6875 C-8.11116028 1.8367076 -16.0965339 0.71664621 -20 6 Z " fill="#FFFFFF" transform="translate(662,817)"/>
<path d="M0 0 C3.6788143 3.19896895 5.71822806 5.31623777 6.23828125 10.26953125 C6.41096972 16.18638352 5.75164446 19.19320554 2 24 C1.71446776 27.17325264 1.71446776 27.17325264 4 29.875 C7.20269042 35.09628756 6.31943855 41.09926018 6 47 C4.515 47.495 4.515 47.495 3 48 C2.34 47.67 1.68 47.34 1 47 C0.69140625 44.671875 0.69140625 44.671875 0.5625 41.75 C0.11823046 35.88120623 0.11823046 35.88120623 -3 31 C-6.77590123 29.15533573 -10.14066924 28.65006576 -14.3125 28.375 C-15.38113281 28.30023437 -16.44976562 28.22546875 -17.55078125 28.1484375 C-18.35902344 28.09945312 -19.16726563 28.05046875 -20 28 C-19.96519531 29.27617188 -19.93039062 30.55234375 -19.89453125 31.8671875 C-19.86639769 33.53644521 -19.83909707 35.2057171 -19.8125 36.875 C-19.77479492 38.13763672 -19.77479492 38.13763672 -19.73632812 39.42578125 C-19.72666016 40.23144531 -19.71699219 41.03710938 -19.70703125 41.8671875 C-19.6913208 42.61081543 -19.67561035 43.35444336 -19.65942383 44.12060547 C-19.77181396 44.74080566 -19.8842041 45.36100586 -20 46 C-20.99 46.66 -21.98 47.32 -23 48 C-23.66 47.67 -24.32 47.34 -25 47 C-25.09899561 40.96774061 -25.17152907 34.93595573 -25.21972656 28.90307617 C-25.23982199 26.85156007 -25.26710324 24.80010111 -25.30175781 22.7487793 C-25.35036669 19.79721975 -25.37298952 16.84641852 -25.390625 13.89453125 C-25.41127014 12.97976517 -25.43191528 12.06499908 -25.45318604 11.12251282 C-25.45467019 6.89532088 -25.38874064 4.62529324 -23.11230469 0.96362305 C-16.53434642 -5.1513236 -7.42351659 -4.1400381 0 0 Z M-20 6 C-20.40988049 7.92564862 -20.40988049 7.92564862 -20.29296875 10.01171875 C-20.28330078 10.76904297 -20.27363281 11.52636719 -20.26367188 12.30664062 C-20.23853516 13.09232422 -20.21339844 13.87800781 -20.1875 14.6875 C-20.17396484 15.48478516 -20.16042969 16.28207031 -20.14648438 17.10351562 C-20.11117089 19.06929967 -20.05736447 21.03473582 -20 23 C-10.54756064 24.05473429 -10.54756064 24.05473429 -2.1875 20.625 C0.12820252 17.84615697 0.8931241 16.78375659 1.375 13.25 C0.8528401 8.7246142 -0.84229378 7.2328897 -4 4 C-6.58008592 2.70995704 -8.55741574 2.79589776 -11.4375 2.75 C-12.40558594 2.72421875 -13.37367188 2.6984375 -14.37109375 2.671875 C-17.46609271 3.05817502 -18.11507495 3.59133361 -20 6 Z " fill="#FFFFFF" transform="translate(394,817)"/>
<path d="M0 0 C1.03930664 0.01353516 1.03930664 0.01353516 2.09960938 0.02734375 C3.79572395 0.05073843 5.49165871 0.08660359 7.1875 0.125 C7.8475 1.445 8.5075 2.765 9.1875 4.125 C5.95599038 7.35650962 1.3358146 6.52306416 -3.046875 6.60351562 C-4.97524629 6.6756536 -6.89692896 6.8917462 -8.8125 7.125 C-11.16020643 10.64655964 -11.18919614 12.63271843 -11.4375 16.8125 C-11.623125 19.9371875 -11.623125 19.9371875 -11.8125 23.125 C-5.2125 23.125 1.3875 23.125 8.1875 23.125 C8.5175 24.445 8.8475 25.765 9.1875 27.125 C8.1875 28.125 8.1875 28.125 6.23803711 28.23852539 C5.4053833 28.23328857 4.57272949 28.22805176 3.71484375 28.22265625 C2.81572266 28.21943359 1.91660156 28.21621094 0.99023438 28.21289062 C0.04470703 28.20451172 -0.90082031 28.19613281 -1.875 28.1875 C-2.82439453 28.18298828 -3.77378906 28.17847656 -4.75195312 28.17382812 C-7.10553065 28.1620011 -9.45898477 28.14552025 -11.8125 28.125 C-11.69840318 30.22978604 -11.57084639 32.33384577 -11.4375 34.4375 C-11.33308594 36.19513672 -11.33308594 36.19513672 -11.2265625 37.98828125 C-11.02636253 41.28199887 -11.02636253 41.28199887 -8.8125 44.125 C-5.87652461 44.50884509 -3.13222627 44.728843 -0.1875 44.8125 C0.61429688 44.84666016 1.41609375 44.88082031 2.2421875 44.91601562 C4.22346318 44.99856878 6.20546037 45.06345916 8.1875 45.125 C8.8125 47 8.8125 47 9.1875 49.125 C6.36253283 51.94996717 4.43951123 51.42494045 0.5 51.4375 C-5.10233041 51.34565852 -9.08374635 51.17241902 -13.8125 48.125 C-17.08934165 43.94803377 -17.26624958 40.05922403 -17.24609375 34.9375 C-17.2513356 34.15737549 -17.25657745 33.37725098 -17.26197815 32.57348633 C-17.2683812 30.92953681 -17.26708361 29.28554137 -17.25854492 27.64160156 C-17.25002591 25.13263151 -17.27883106 22.62593342 -17.31054688 20.1171875 C-17.31215893 18.51562568 -17.31158127 16.91405985 -17.30859375 15.3125 C-17.31982773 14.56653564 -17.33106171 13.82057129 -17.34263611 13.05200195 C-17.27691633 8.11839772 -16.33611971 5.58095186 -12.8125 2.125 C-8.70496097 -0.2444612 -4.61953529 -0.11493581 0 0 Z " fill="#FFFFFF" transform="translate(615.8125,813.875)"/>
<path d="M0 0 C1.03930664 0.01353516 1.03930664 0.01353516 2.09960938 0.02734375 C3.79572395 0.05073843 5.49165871 0.08660359 7.1875 0.125 C7.8475 1.445 8.5075 2.765 9.1875 4.125 C5.95599038 7.35650962 1.3358146 6.52306416 -3.046875 6.60351562 C-4.97524629 6.6756536 -6.89692896 6.8917462 -8.8125 7.125 C-11.16020643 10.64655964 -11.18919614 12.63271843 -11.4375 16.8125 C-11.623125 19.9371875 -11.623125 19.9371875 -11.8125 23.125 C-5.2125 23.125 1.3875 23.125 8.1875 23.125 C8.5175 24.115 8.8475 25.105 9.1875 26.125 C8.8575 26.785 8.5275 27.445 8.1875 28.125 C1.5875 28.125 -5.0125 28.125 -11.8125 28.125 C-11.68875 30.208125 -11.565 32.29125 -11.4375 34.4375 C-11.33308594 36.19513672 -11.33308594 36.19513672 -11.2265625 37.98828125 C-11.02636253 41.28199887 -11.02636253 41.28199887 -8.8125 44.125 C-5.36959307 44.47745276 -2.03324235 44.56143292 1.421875 44.56445312 C3.5625 44.62109375 3.5625 44.62109375 7.1875 45.125 C8.6875 47.16015625 8.6875 47.16015625 9.1875 49.125 C6.36253283 51.94996717 4.43951123 51.42494045 0.5 51.4375 C-5.85834128 51.33977959 -10.7061247 51.12097547 -15.46118164 46.53491211 C-17.41018391 43.05910337 -17.26083987 39.69928995 -17.24609375 35.81640625 C-17.2513356 35.01267075 -17.25657745 34.20893524 -17.26197815 33.38084412 C-17.26839095 31.68383945 -17.26707092 29.98679029 -17.25854492 28.28979492 C-17.25003956 25.6995488 -17.27879608 23.11151246 -17.31054688 20.52148438 C-17.31215922 18.86979233 -17.31158072 17.21809639 -17.30859375 15.56640625 C-17.31982773 14.79543106 -17.33106171 14.02445587 -17.34263611 13.2301178 C-17.29457306 9.50289663 -16.95412921 7.34580616 -14.92285156 4.17895508 C-10.46637509 -0.15842768 -5.96032209 -0.1482951 0 0 Z " fill="#FFFFFF" transform="translate(428.8125,813.875)"/>
<path d="M0 0 C1.965271 0.20664978 1.965271 0.20664978 4 1 C4.93658447 2.60084534 4.93658447 2.60084534 5.55566406 4.69360352 C5.79561096 5.47433731 6.03555786 6.25507111 6.28277588 7.0594635 C6.64553619 8.33133766 6.64553619 8.33133766 7.015625 9.62890625 C7.27631775 10.49313705 7.5370105 11.35736786 7.80560303 12.24778748 C8.63631831 15.01489653 9.44332564 17.78829797 10.25 20.5625 C10.80835074 22.43730981 11.36822748 24.31166587 11.9296875 26.18554688 C13.30423454 30.78528243 14.65755674 35.39079748 16 40 C16.34256836 38.82381104 16.68513672 37.64762207 17.03808594 36.43579102 C18.31074538 32.08282104 19.60554778 27.7367059 20.90722656 23.39233398 C21.46800525 21.50937171 22.02272181 19.62459314 22.57128906 17.73803711 C23.35985505 15.03001041 24.16983413 12.32921653 24.984375 9.62890625 C25.22621521 8.78099014 25.46805542 7.93307404 25.71722412 7.0594635 C25.95717102 6.27872971 26.19711792 5.49799591 26.44433594 4.69360352 C26.6486322 4.00299332 26.85292847 3.31238312 27.06341553 2.60084534 C28 1 28 1 30.097229 0.26914978 C30.72514343 0.18033035 31.35305786 0.09151093 32 0 C33.39089457 2.24754853 34.06980068 3.47500923 33.71574402 6.13796997 C33.4656105 6.90471039 33.21547699 7.67145081 32.95776367 8.46142578 C32.68054977 9.33558136 32.40333588 10.20973694 32.11772156 11.11038208 C31.64759392 12.51367264 31.64759392 12.51367264 31.16796875 13.9453125 C30.8567659 14.91153534 30.54556305 15.87775818 30.22492981 16.8732605 C29.22627612 19.96186311 28.20699746 23.04322264 27.1875 26.125 C26.511047 28.20920655 25.83590058 30.29383766 25.16210938 32.37890625 C23.92597927 36.18763986 22.68638484 39.99511928 21.43041992 43.79736328 C21.17789963 44.56251251 20.92537933 45.32766174 20.66520691 46.11599731 C20 48 20 48 19 50 C17.02 50 15.04 50 13 50 C10.67454376 43.08136798 8.36385291 36.15796083 6.06933594 29.22900391 C5.3920438 27.18382907 4.7132003 25.13916678 4.03222656 23.09521484 C3.17866585 20.52480155 2.33731668 17.95074315 1.5 15.375 C1.24524902 14.61340576 0.99049805 13.85181152 0.72802734 13.06713867 C-0.60156739 8.92880999 -1.37959516 5.4060153 -1 1 C-0.67 0.67 -0.34 0.34 0 0 Z " fill="#FFFFFF" transform="translate(554,814)"/>
<path d="M0 0 C1.32 0.66 2.64 1.32 4 2 C4.0093457 2.57967529 4.01869141 3.15935059 4.02832031 3.7565918 C4.0822407 6.40106946 4.16584129 9.04381893 4.25 11.6875 C4.26417969 12.59951172 4.27835938 13.51152344 4.29296875 14.45117188 C4.44719862 18.69249318 4.6266196 21.36315204 6.8046875 25.078125 C9.64138706 27.56149899 11.30554031 27.95102436 14.96484375 28.2109375 C18.37393373 27.85759612 20.45495342 26.17260073 23 24 C24.20270964 21.59458071 24.20316663 19.89633409 24.31640625 17.2109375 C24.35830078 16.26992188 24.40019531 15.32890625 24.44335938 14.359375 C24.48267578 13.37453125 24.52199219 12.3896875 24.5625 11.375 C24.60568359 10.38242187 24.64886719 9.38984375 24.69335938 8.3671875 C24.79961069 5.91160162 24.90164964 3.45591297 25 1 C26.875 0.375 26.875 0.375 29 0 C31.55244581 2.55244581 31.28323923 4.27813951 31.32958984 7.76464844 C31.32113037 8.90208496 31.32113037 8.90208496 31.3125 10.0625 C31.30404053 11.21733887 31.30404053 11.21733887 31.29541016 12.39550781 C31.1611533 18.6882996 30.86180127 24.61189045 26.640625 29.609375 C23.42461446 32.56014756 21.38251999 33.123496 17 34 C17 39.28 17 44.56 17 50 C15.515 50.495 15.515 50.495 14 51 C13.34 50.67 12.68 50.34 12 50 C12 44.72 12 39.44 12 34 C9.69 33.34 7.38 32.68 5 32 C3.0390625 30.4140625 3.0390625 30.4140625 1.625 28.625 C1.14289062 28.03976562 0.66078125 27.45453125 0.1640625 26.8515625 C-2.7742135 22.17792887 -2.1835273 16.69841994 -2.1875 11.375 C-2.19974609 10.50359375 -2.21199219 9.6321875 -2.22460938 8.734375 C-2.22654297 7.90164063 -2.22847656 7.06890625 -2.23046875 6.2109375 C-2.23457764 5.45087402 -2.23868652 4.69081055 -2.24291992 3.90771484 C-2 2 -2 2 0 0 Z " fill="#FFFFFF" transform="translate(681,814)"/>
<path d="M0 0 C0 1.65 0 3.3 0 5 C-1.37671875 5.02126953 -1.37671875 5.02126953 -2.78125 5.04296875 C-10.27921287 5.33438117 -16.4310911 5.58539336 -22 11 C-25.91963398 15.62080018 -27.25819339 20.99958559 -27 27 C-25.61943927 33.80506483 -22.15493046 37.79154868 -16.5 41.75 C-11.13036877 43.66772544 -5.66441538 43.75627886 0 44 C-0.33 45.65 -0.66 47.3 -1 49 C-9.20313088 50.49147834 -15.53694994 49.76503213 -22.75 45.375 C-28.12103195 41.54391427 -31.77415224 36.54602705 -33 30 C-33.70157244 21.31129518 -32.76234061 14.88220843 -27.6875 7.75 C-19.28205457 -0.85092091 -11.32997506 -1.54120984 0 0 Z " fill="#FFFFFF" transform="translate(481,815)"/>
</svg>
